<?xml version="1.0" encoding="utf-8"?>
<!-- Generator: Adobe Illustrator 16.0.0, SVG Export Plug-In . SVG Version: 6.00 Build 0)  -->
<!DOCTYPE svg PUBLIC "-//W3C//DTD SVG 1.1//EN" "http://www.w3.org/Graphics/SVG/1.1/DTD/svg11.dtd">
<svg version="1.1" id="Layer_1" xmlns="http://www.w3.org/2000/svg" xmlns:xlink="http://www.w3.org/1999/xlink" x="0px" y="0px"
	 width="800px" height="200px" viewBox="0 0 800 200" enable-background="new 0 0 800 200" xml:space="preserve">
<g>
	<path fill="#D7DADD" d="M161.491,74.782c-0.87,0.317-1.719,0.729-2.535,1.26l-55.851,36.291c-5.823,3.781-7.61,11.562-3.99,17.375
		c3.614,5.816,11.263,7.471,17.083,3.684l55.854-36.29c0.816-0.53,1.54-1.142,2.192-1.814
		C168.083,89.918,163.636,82.762,161.491,74.782z"/>
	<path fill="#D7DADD" d="M237.052,10.983c-24.326-12.979-54.68-3.747-67.658,20.583c-12.979,24.328-3.747,54.679,20.583,67.66
		c24.326,12.976,54.68,3.746,67.66-20.583C270.614,54.313,261.382,23.962,237.052,10.983z M198.186,83.833
		c-15.841-8.452-21.854-28.215-13.402-44.058c8.453-15.841,28.215-21.854,44.056-13.402c15.843,8.451,21.854,28.214,13.405,44.058
		C233.792,86.273,214.029,92.285,198.186,83.833z"/>
</g>
<g display="none">
	<path display="inline" fill="#010101" d="M377.994,109.412c-0.283,0.324-0.536,0.682-0.748,1.078l-14.5,27.181
		c-1.512,2.833-0.441,6.354,2.392,7.863c2.832,1.512,6.354,0.442,7.864-2.392l14.501-27.182c0.212-0.396,0.367-0.806,0.479-1.223
		C384.209,113.982,380.725,112.123,377.994,109.412z"/>
	<path display="inline" fill="#010101" d="M415.716,50.731c-16.212-8.65-36.441-2.497-45.09,13.717
		c-8.65,16.213-2.497,36.44,13.717,45.091c16.212,8.648,36.44,2.496,45.091-13.717C438.082,79.608,431.93,59.381,415.716,50.731z
		 M389.814,99.281c-10.557-5.632-14.564-18.803-8.932-29.361c5.633-10.557,18.804-14.564,29.361-8.932
		c10.558,5.632,14.563,18.803,8.933,29.362C413.543,100.907,400.372,104.914,389.814,99.281z"/>
	<path display="inline" fill="#010101" d="M407.598,63.855c-1.418-0.756-3.179-0.22-3.934,1.195
		c-0.755,1.417-0.221,3.178,1.195,3.934c6.692,3.57,9.232,11.92,5.662,18.612c-0.756,1.417-0.22,3.177,1.196,3.933
		c1.416,0.755,3.177,0.22,3.933-1.197C420.73,80.812,417.117,68.934,407.598,63.855z"/>
</g>
<rect x="-2" y="29.785" fill="none" width="193.011" height="67.742"/>
<text transform="matrix(1 0 0 1 -2 65.2861)" fill="#E15D41" font-family="'SourceSansPro-Light'" font-size="50"> Debate</text>
<rect x="188.42" y="36.896" fill="none" width="169.355" height="76.343"/>
<text transform="matrix(1 0 0 1 188.4199 65.2959)" fill="#E15D41" font-family="'SourceSansPro-Light'" font-size="40">Me</text>
</svg>
